<svg width="48" height="40" viewBox="0 0 48 40" fill="none" xmlns="http://www.w3.org/2000/svg">
<path d="M6.90011 22.3903C3.08724 22.3903 0.0032959 19.2904 0.0032959 15.4995V12.2689H2.90033V15.4995C2.90033 17.7031 4.69462 19.4958 6.90011 19.4958V22.3903Z" fill="#FF707C"/>
<path d="M43.4775 16.0971C42.3374 12.9972 40.1506 10.4202 37.347 8.77684V2.91316C34.8051 2.91316 32.6557 4.63118 32.0015 6.98412C31.4221 6.90943 30.8427 6.87208 30.2633 6.87208H19.5536C11.7783 6.87208 5.46094 13.1839 5.46094 20.9524C5.46094 27.6751 10.171 33.2773 16.4697 34.6965V40H22.0955V35.0327H27.7214V40H33.3472V34.6779C38.0386 33.6321 41.8514 30.2334 43.4962 25.789H47.3838V16.0784H43.4962L43.4775 16.0971Z" fill="#FF707C"/>
<path d="M26.413 6.87209H19.5536C11.7783 6.87209 5.46094 13.1839 5.46094 20.9524C5.46094 27.6751 10.171 33.2773 16.4697 34.6965V40H22.0955V35.0327H26.413V6.87209V6.87209Z" fill="#FF959E"/>
<path d="M17.5911 11.3539H32.2258V14.2484H17.5911V11.3539Z" fill="#E21A4D"/>
<path d="M37.2349 14.1923C36.1695 14.1923 35.3098 15.0514 35.3098 16.1158C35.3098 17.1802 36.1695 18.0392 37.2349 18.0392C38.3002 18.0392 39.16 17.1802 39.16 16.1158C39.16 15.0514 38.3002 14.1923 37.2349 14.1923V14.1923Z" fill="#E21A4D"/>
<path d="M24.8617 0C29.254 0 32.8052 3.54809 32.8052 7.93651C32.8052 10.5135 31.5716 12.8105 29.6652 14.2484L20.0769 14.267C18.1705 12.8105 16.9182 10.5322 16.9182 7.93651C16.9182 3.54809 20.4694 0 24.8617 0V0Z" fill="#E66600"/>
<path d="M24.8617 2.76377C27.7214 2.76377 30.0203 5.07936 30.0203 7.91783C30.0203 10.775 27.7027 13.0719 24.8617 13.0719C22.0021 13.0719 19.7031 10.7563 19.7031 7.91783C19.7031 5.06069 22.0208 2.76377 24.8617 2.76377V2.76377Z" fill="#FFBA00"/>
<path d="M24.8617 0C20.4881 0 16.9182 3.54809 16.9182 7.93651C16.9182 10.5135 18.1518 12.8105 20.0769 14.267L24.8617 14.2484V0V0Z" fill="#FFBA00"/>
<path d="M24.8617 2.76378C22.0021 2.76378 19.7031 5.07937 19.7031 7.91784C19.7031 10.775 22.0208 13.0719 24.8617 13.0719V2.7451V2.76378Z" fill="#FDDF9C"/>
</svg>
