<svg width="117" height="28" viewBox="0 0 117 28" fill="none" xmlns="http://www.w3.org/2000/svg">
<path d="M10.9107 17.5829C10.9107 15.8892 10.6365 14.5906 10.0801 13.6873C9.52369 12.7839 8.68503 12.3403 7.55605 12.3403C7.03995 12.3403 6.53191 12.4129 6.03194 12.55C5.53197 12.6952 5.09651 12.8646 4.74168 13.0743V22.9062C5.10457 22.9869 5.48358 23.0353 5.87872 23.0595C6.27386 23.0837 6.62062 23.0998 6.90286 23.0998C8.13667 23.0998 9.11242 22.6804 9.83013 21.8496C10.5478 21.0108 10.9107 19.5913 10.9107 17.591V17.5829ZM15.733 17.6959C15.733 19.1396 15.5395 20.4381 15.1524 21.6077C14.7653 22.7772 14.2009 23.7773 13.459 24.6C12.7171 25.4227 11.7978 26.0598 10.7252 26.5115C9.64465 26.9632 8.41085 27.189 7.02382 27.189C5.79002 27.189 4.53202 27.1003 3.24176 26.9229C1.95957 26.7454 0.878986 26.5115 0 26.2292V0.814621L4.74168 0.00806427V9.07376C5.411 8.76727 6.05613 8.5495 6.669 8.43658C7.28187 8.32366 7.90281 8.25914 8.52374 8.25914C9.70916 8.25914 10.7494 8.48498 11.6445 8.93665C12.5477 9.38832 13.2977 10.0255 13.9025 10.8643C14.5073 11.7031 14.9589 12.6952 15.2734 13.8566C15.5798 15.01 15.733 16.3005 15.733 17.712V17.6959ZM18.0878 17.8491C18.0878 16.2521 18.3297 14.8568 18.8216 13.6469C19.3135 12.4371 19.9506 11.4289 20.7489 10.6224C21.5472 9.81579 22.4585 9.20281 23.4826 8.79147C24.5148 8.38012 25.5632 8.17848 26.6438 8.17848C29.321 8.17848 31.3451 8.96891 32.7402 10.5498C34.1272 12.1306 34.8207 14.4374 34.8207 17.47C34.8207 17.7765 34.8127 18.0991 34.8046 18.4379C34.7885 18.7686 34.7724 19.0428 34.7482 19.2444H22.9907C22.9907 20.4301 23.4826 21.3576 24.4584 22.0432C25.4341 22.7207 26.6921 23.0675 28.2404 23.0675C29.192 23.0675 30.0952 22.9627 30.958 22.761C31.8209 22.5513 32.5467 22.3497 33.1353 22.14L33.7885 26.1889C32.966 26.4712 32.0951 26.7132 31.1677 26.8987C30.2403 27.0922 29.2001 27.189 28.0469 27.189C26.5067 27.189 25.1196 26.9874 23.902 26.5922C22.6843 26.197 21.636 25.6001 20.7812 24.8178C19.9183 24.0354 19.257 23.0595 18.7974 21.9061C18.3377 20.7527 18.1039 19.3977 18.1039 17.8572L18.0878 17.8491ZM30.2323 15.9618C30.2323 15.4698 30.1678 15.002 30.0387 14.5503C29.9097 14.0986 29.7081 13.6953 29.4259 13.3324C29.1436 12.9694 28.7807 12.6871 28.3453 12.4613C27.9098 12.2435 27.3695 12.1306 26.7244 12.1306C26.1035 12.1306 25.5712 12.2355 25.1277 12.4371C24.6761 12.6387 24.3052 12.9291 24.0068 13.284C23.7084 13.6469 23.4826 14.0583 23.3133 14.518C23.1439 14.9778 23.0391 15.4536 22.9827 15.9456H30.2323V15.9618Z" fill="#FEFEFE"/>
<path d="M42.8607 17.6959C42.8607 16.3812 43.0703 15.1471 43.4816 13.9938C43.8929 12.8404 44.5219 11.8241 45.3686 10.9692C46.2153 10.1062 47.2878 9.42865 48.5862 8.92858C49.8845 8.42852 51.4328 8.17849 53.2311 8.17849C54.3117 8.17849 55.2874 8.25914 56.1583 8.41239C57.0293 8.56563 57.9163 8.82373 58.8195 9.18668L57.7792 13.0017C57.2631 12.8243 56.6906 12.6629 56.0616 12.5178C55.4326 12.3726 54.6262 12.3081 53.6504 12.3081C52.5214 12.3081 51.5779 12.4452 50.8199 12.7113C50.0619 12.9775 49.449 13.3566 48.9894 13.8324C48.5297 14.3083 48.191 14.881 47.9894 15.5504C47.7878 16.2199 47.683 16.9377 47.683 17.712C47.683 19.3816 48.1507 20.6962 49.0942 21.648C50.0296 22.5997 51.6344 23.0756 53.8923 23.0756C54.6342 23.0756 55.4164 23.0272 56.2229 22.9223C57.0293 22.8175 57.7712 22.6562 58.4405 22.4223L59.134 26.3179C58.4647 26.576 57.6583 26.7858 56.7067 26.9551C55.7551 27.1245 54.6342 27.2052 53.352 27.2052C51.4973 27.2052 49.9167 26.9632 48.5862 26.4712C47.2636 25.9792 46.175 25.3178 45.3283 24.4629C44.4815 23.616 43.8606 22.6078 43.4574 21.4544C43.0623 20.301 42.8607 19.0509 42.8607 17.712V17.6959ZM70.1253 23.3659C70.6414 23.3659 71.1414 23.3579 71.6253 23.3498C72.1172 23.3337 72.5365 23.3014 72.8994 23.253V19.0912C72.593 19.0428 72.222 18.9944 71.7785 18.9541C71.343 18.9138 70.9398 18.8976 70.585 18.8976C70.0931 18.8976 69.6173 18.9299 69.1577 18.9944C68.698 19.0589 68.2867 19.1719 67.94 19.3251C67.5932 19.4783 67.319 19.6961 67.1094 19.9784C66.9078 20.2607 66.8029 20.6317 66.8029 21.0995C66.8029 21.9222 67.1094 22.511 67.7303 22.8578C68.3512 23.2046 69.1415 23.3821 70.1173 23.3821L70.1253 23.3659ZM69.6979 8.17042C71.1898 8.17042 72.4317 8.34786 73.4155 8.69468C74.4074 9.0415 75.1977 9.5335 75.7863 10.1626C76.375 10.7917 76.8024 11.566 77.0605 12.4774C77.3185 13.3888 77.4475 14.4132 77.4475 15.5424V26.3421C76.754 26.4954 75.7218 26.6728 74.359 26.8825C72.9962 27.0922 71.464 27.189 69.7705 27.189C68.6174 27.189 67.569 27.0842 66.6255 26.8825C65.6901 26.6728 64.8837 26.3341 64.2144 25.8582C63.545 25.3823 63.0289 24.7694 62.6741 24.0031C62.3112 23.245 62.1338 22.3094 62.1338 21.2044C62.1338 20.1478 62.3435 19.2606 62.7548 18.5427C63.166 17.8249 63.7225 17.2442 64.416 16.8086C65.1095 16.3731 65.9078 16.0585 66.8029 15.865C67.7061 15.6714 68.6416 15.5746 69.6173 15.5746C70.8511 15.5746 71.9398 15.6795 72.8913 15.8811V15.3004C72.8913 14.397 72.6091 13.6469 72.0446 13.042C71.4801 12.4371 70.5044 12.1387 69.1173 12.1387C68.2142 12.1387 67.3513 12.2032 66.5126 12.3323C65.674 12.4613 65.0046 12.6145 64.4885 12.792L63.8354 8.97698C64.424 8.76727 65.2627 8.58176 66.3433 8.42045C67.4239 8.25108 68.5448 8.17042 69.6979 8.17042ZM88.5195 23.1724C89.6727 23.1724 90.5597 23.0917 91.1807 22.9223C91.8016 22.753 92.1081 22.4142 92.1081 21.898C92.1081 21.5673 92.0113 21.277 91.8177 21.0511C91.6242 20.8172 91.3581 20.6237 91.0113 20.4543C90.6646 20.2849 90.2694 20.1236 89.8178 19.9703C89.3663 19.8171 88.8985 19.6639 88.4066 19.5106C87.7131 19.3009 87.0035 19.067 86.2858 18.7928C85.5681 18.5266 84.9068 18.1798 84.3181 17.7684C83.7295 17.3571 83.2376 16.8328 82.8505 16.2037C82.4634 15.5746 82.2699 14.7842 82.2699 13.8324C82.2699 13.0582 82.415 12.3323 82.7134 11.6547C83.0118 10.9772 83.4714 10.3723 84.1004 9.83999C84.7294 9.31573 85.5358 8.90439 86.5116 8.60596C87.4873 8.30754 88.6566 8.16235 90.0195 8.16235C91.2049 8.16235 92.3016 8.25108 93.3177 8.42852C94.3337 8.60596 95.2127 8.86406 95.9627 9.20281L95.2289 13.2114C94.7934 13.0824 94.1079 12.8726 93.1886 12.5742C92.2613 12.2758 91.221 12.1306 90.0678 12.1306C88.8582 12.1306 88.0438 12.2758 87.6164 12.5742C87.189 12.8726 86.9793 13.1872 86.9793 13.5179C86.9793 13.8002 87.0761 14.0502 87.2696 14.268C87.4631 14.4858 87.7212 14.6874 88.0438 14.8648C88.3663 15.0423 88.7373 15.2197 89.1647 15.3891C89.5921 15.5585 90.0436 15.7198 90.5356 15.873C91.2291 16.1069 91.9468 16.365 92.6967 16.6473C93.4386 16.9296 94.116 17.2845 94.7208 17.712C95.3256 18.1395 95.8175 18.6799 96.2046 19.3332C96.5917 19.9865 96.7852 20.793 96.7852 21.7448C96.7852 22.4868 96.6401 23.1966 96.3578 23.866C96.0756 24.5355 95.6079 25.1162 94.9466 25.6001C94.2934 26.0921 93.4386 26.4712 92.3822 26.7535C91.3258 27.0358 90.0275 27.181 88.4873 27.181C86.9228 27.181 85.5842 27.0035 84.4794 26.6406C83.3746 26.2776 82.4876 25.9631 81.8183 25.6727L82.5521 21.7044C83.4553 22.0674 84.4068 22.3981 85.4229 22.7046C86.439 23.0111 87.4712 23.1643 88.5276 23.1643L88.5195 23.1724ZM101.438 26.7616V0.806557L106.18 0V8.79147C106.567 8.66242 107.027 8.54144 107.567 8.42852C108.107 8.3156 108.583 8.25108 108.994 8.25108C110.333 8.25108 111.446 8.45271 112.349 8.84793C113.252 9.24314 113.97 9.8158 114.51 10.5417C115.05 11.2757 115.437 12.1467 115.663 13.163C115.897 14.1793 116.01 15.3004 116.01 16.5344V26.7535H111.268V17.1474C111.268 15.4536 111.075 14.2277 110.688 13.4856C110.301 12.7436 109.567 12.3645 108.486 12.3645C108.051 12.3645 107.615 12.4129 107.196 12.5178C106.769 12.6226 106.43 12.7113 106.172 12.7839V26.7454H101.43L101.438 26.7616Z" fill="#FEFEFE"/>
</svg>
